<svg xmlns="http://www.w3.org/2000/svg" width="64" height="64" viewBox="0 0 64 64" role="img" aria-labelledby="logoTitle">
  <title id="logoTitle">CoWork Manager</title>
  <defs>
    <linearGradient id="g1" x1="0" y1="0" x2="1" y2="1">
      <stop offset="0" stop-color="#6EE7B7" />
      <stop offset="1" stop-color="#3B82F6" />
    </linearGradient>
    <filter id="s" x="-20%" y="-20%" width="140%" height="140%">
      <feDropShadow dx="0" dy="2" stdDeviation="4" flood-opacity="0.12"/>
    </filter>
  </defs>

  <rect width="64" height="64" rx="12" fill="url(#g1)" filter="url(#s)" />

  <!-- Monogram: white C and W -->
  <g transform="translate(12,12)" fill="#fff">
    <path d="M8 8c-3.314 0-6 2.686-6 6s2.686 6 6 6c1.657 0 3.156-.672 4.243-1.757l-1.414-1.414A4 4 0 0 1 8 18c-2.206 0-4-1.794-4-4s1.794-4 4-4c1.105 0 2.105.448 2.828 1.172L14 8.828C12.828 7.657 10.586 6 8 6z" />
    <path d="M22 6v20h-2V12.5l-6 6V26l-2 .001V14l8-8h2z" />
  </g>
</svg>
